<?xml version="1.0" standalone="no"?>
<!DOCTYPE svg PUBLIC "-//W3C//DTD SVG 1.1//EN" "http://www.w3.org/Graphics/SVG/1.1/DTD/svg11.dtd" >
<svg xmlns="http://www.w3.org/2000/svg" xmlns:xlink="http://www.w3.org/1999/xlink" version="1.1">
<metadata>
Created by FontForge 20190801 at Sat May 23 14:56:19 1998
 By www-data
ARKHAM Designed by J Cianciaruso (c) 16/7/97  Blue Fish TM
</metadata>
<defs>
<font id="Arkham_reg" horiz-adv-x="301" >
  <font-face 
    font-family="Arkham_reg"
    font-weight="400"
    font-stretch="normal"
    units-per-em="1000"
    panose-1="0 0 4 0 0 0 0 0 0 0"
    ascent="800"
    descent="-200"
    x-height="604"
    cap-height="820"
    bbox="-16 -311 904 915"
    underline-thickness="20"
    underline-position="-143"
    unicode-range="U+0020-F002"
  />
<missing-glyph horiz-adv-x="500" 
d="M63 0v873h375v-873h-375zM125 63h250v748h-250v-748z" />
    <glyph glyph-name=".notdef" horiz-adv-x="500" 
d="M63 0v873h375v-873h-375zM125 63h250v748h-250v-748z" />
    <glyph glyph-name=".null" horiz-adv-x="0" 
 />
    <glyph glyph-name="nonmarkingreturn" 
 />
    <glyph glyph-name="space" unicode=" " 
 />
    <glyph glyph-name="exclam" unicode="!" horiz-adv-x="336" 
d="M296 777q-37 -31 -46 -98q-1 -48 -8 -264l-2 -61q-3 -88 37 -154q-77 49 -104 49q-11 0 -18 -4v344q0 86 -21 143q-24 65 -82 119q80 -51 93 -58q53 -29 86 -29q29 0 65 13zM201 177q16 -81 23 -93q18 -32 80 -41q-62 -8 -80 -36q-15 -23 -19 -90q-17 74 -28 89
q-20 27 -84 36q58 14 81 45q20 27 27 90z" />
    <glyph glyph-name="quotedbl" unicode="&#x22;" horiz-adv-x="318" 
d="M148 702q-29 -9 -41 -45q-4 -12 -16 -74q-10 73 -20 110q-11 42 -41 76q50 3 66 54q1 -9 5 -27q9 -33 14 -44q11 -29 33 -50zM275 698q-27 -8 -38 -41q-4 -12 -16 -74q-10 73 -20 110q-9 34 -39 79q49 2 64 51q1 -9 5 -27q10 -36 44 -98z" />
    <glyph glyph-name="numbersign" unicode="#" 
 />
    <glyph glyph-name="dollar" unicode="$" 
 />
    <glyph glyph-name="percent" unicode="%" 
 />
    <glyph glyph-name="ampersand" unicode="&#x26;" horiz-adv-x="792" 
d="M548 815l34 52l-21 -71q-54 -131 -83 -289q6 105 -43 176q-41 60 -95 70q-32 6 -57 6q-82 0 -108 -94q-12 -42 -8 -77q17 -168 184 -171q50 -1 163 -1q20 0 48.5 15t27.5 15q50 14 50 52q0 14 -8 51q32 -37 32 -68q0 -7 -2 -23q-6 -11 -42.5 -34t-42.5 -38.5t-6 -28.5
q0 -16 14 -35q12 -10 28 -28q-5 30 2 68q4 24 23 42t43 18t49 -18q5 -2 31 -44l-19 17q-15 13 -28 13q-29 0 -41 -45q-8 -30 -7 -68q2 -79 -13 -126q-17 -57 -68 -104q-65 -60 -228 -60q-27 0 -65 3q-97 8 -124 17q-70 24 -115 101q-24 41 -24 102q0 65 29 109q25 38 68 54
q14 5 72 14q46 7 48 6q-11 3 -53 18q-75 26 -107 72.5t-32 126.5t40 123q66 72 165 72q36 0 107.5 -15.5t106.5 -15.5q48 0 75 41zM527 366h-239h-23q-15 -1 -21 -1q-14 -2 -17 -2q-23 -3 -40 -17q-51 -41 -51 -113q0 -24 8 -52q18 -63 45 -96q32 -39 89 -55q29 -8 61 -8
q115 0 183 80q31 37 31 133q0 73 -26 131z" />
    <glyph glyph-name="quotesingle" unicode="'" horiz-adv-x="199" 
d="M159 697q-28 -6 -55 -50q-7 -12 -36 -74q10 73 10 110q0 34 -18 72q17 1 43.5 19t44.5 47q-7 -18 -7 -30v-43q3 -28 18 -51z" />
    <glyph glyph-name="parenleft" unicode="(" horiz-adv-x="353" 
d="M325 -11q-94 64 -161 178.5t-79 229.5q12 116 78.5 229.5t161.5 178.5q-37 -56 -69 -110q-57 -97 -57 -189q0 -62 33 -110q-34 -46 -34 -108q0 -87 58 -188q16 -27 69 -111z" />
    <glyph glyph-name="parenright" unicode=")" horiz-adv-x="408" 
d="M261 397q-12 -116 -78 -230t-162 -178q20 31 69 111q58 99 58 188q0 62 -34 108q32 45 32 110q0 94 -56 189q-8 14 -69 110q96 -66 162 -178.5t78 -229.5z" />
    <glyph glyph-name="asterisk" unicode="*" 
 />
    <glyph glyph-name="plus" unicode="+" horiz-adv-x="571" 
d="M276 571q9 -53 19 -106q17 -76 41 -92q41 -28 164 -41q-141 -14 -181 -59q-19 -22 -36 -189q-3 8 -29 114q-15 63 -25 73q-32 32 -182 49q131 23 174 63q35 33 55 188z" />
    <glyph glyph-name="comma" unicode="," horiz-adv-x="230" 
d="M240 0q-54 -8 -93 -41q-16 -14 -68 -74q18 76 18 110q0 38 -13 64q56 1 127 66q-3 -13 -3 -27q0 -37 32 -98z" />
    <glyph glyph-name="hyphen" unicode="-" horiz-adv-x="510" 
d="M414 182l-15 32q-27 58 -91 58q-14 0 -57 -7q-35 -5 -57 -2q-23 3 -29 6.5t-23 20.5q-5 5 -11 18q-25 52 -32 111l15 -32q24 -52 86 -52q26 0 54 7q17 4 51 0q37 -4 46 -15q5 -3 19 -17q34 -44 44 -128z" />
    <glyph glyph-name="hyphen" unicode="&#x2010;" horiz-adv-x="510" 
d="M414 182l-15 32q-27 58 -91 58q-14 0 -57 -7q-35 -5 -57 -2q-23 3 -29 6.5t-23 20.5q-5 5 -11 18q-25 52 -32 111l15 -32q24 -52 86 -52q26 0 54 7q17 4 51 0q37 -4 46 -15q5 -3 19 -17q34 -44 44 -128z" />
    <glyph glyph-name="period" unicode="." horiz-adv-x="295" 
d="M256 61q-73 -34 -112 -121q-8 34 -36 72.5t-58 54.5q79 41 108 116q33 -93 98 -122z" />
    <glyph glyph-name="slash" unicode="/" 
d="M121 -10l-11 49q-4 18 -4 39q0 112 125 291q48 69 85 146q29 61 31 79q0 5 7 34q2 12 2 17q0 12 -4 33q-15 80 -61 127l11 -49q4 -18 4 -35q0 -100 -135 -297q-38 -55 -75 -140q-29 -66 -30 -83q-1 -8 -4.5 -25t-3.5 -26q0 -94 63 -160z" />
    <glyph glyph-name="zero" unicode="0" horiz-adv-x="686" 
d="M659 431q0 -138 -55 -257q-39 -84 -109 -135q-74 -53 -163 -53q-108 0 -197 85q-121 115 -121 332q0 55 9 106q1 1 2 10q15 95 82 181q72 93 161 110q31 6 65 6q93 0 166 -48q79 -52 121 -148q39 -87 39 -189zM532 287q8 130 8 154q0 215 -108 293q-43 31 -95 31
q-85 0 -133 -82q-23 -39 -48 -118q-19 -89 -19 -176q0 -188 92 -304q50 -48 113 -48q18 0 38 5q117 29 152 245z" />
    <glyph glyph-name="one" unicode="1" horiz-adv-x="438" 
d="M289 -9q-70 21 -139 21q-73 0 -145 -26q57 35 73 81q8 23 10 95q2 62 1 238l-1 238q0 68 -13 103q-18 47 -68 75q105 -30 150 -30q35 0 83 14q-17 -45 -17 -74l-1 -582q0 -113 67 -153z" />
    <glyph glyph-name="two" unicode="2" horiz-adv-x="710" 
d="M631 255q-84 -157 -84 -212q0 -25 12 -42h-394l-110 -8l-64 -16q81 46 163 148l162 202q79 99 112 209q13 46 13 74q0 62 -69 120q-36 16 -76 16q-47 0 -101 -22q-49 -28 -83 -92q-21 -41 -49 -134q1 28 14 100q10 57 10 102q0 38 -27 107q44 -24 92 -24q24 0 83 9
q56 8 87 7q56 -2 112 -24q25 -13 73 -40q35 -25 55 -86q7 -32 7 -68q0 -93 -58 -178q-40 -59 -132 -141q-19 -17 -170 -162q5 -5 -19 -21q0 -1 1 -1q45 2 163 10q87 7 151.5 49t125.5 118z" />
    <glyph glyph-name="three" unicode="3" horiz-adv-x="633" 
d="M569 800q-66 -85 -213 -282v-9q1 -4 7 -4q130 7 198 -85q45 -61 45 -150q0 -92 -47 -165q-91 -114 -241 -114q-30 0 -62 3q-21 2 -76 15q-48 11 -79 11q-30 0 -101 -37q64 73 76 128q6 18 17 110q16 -111 98 -154q52 -27 108 -27q67 0 112 39q70 49 70 148q0 117 -85 157
q-49 23 -97 23q-41 0 -78 -17l-31 -25l206 283q0 -1 -2 -3q5 8 38 65q-49 11 -83 11t-107 -14q-157 -54 -227 -123q38 47 49 88q25 45 25 94q0 19 -4 32v11q86 -8 130 -8l32 -1l64 -2q46 0 92 1q95 2 166 1z" />
    <glyph glyph-name="four" unicode="4" horiz-adv-x="677" 
d="M641 442q-27 -34 -45.5 -95t-17.5 -105q9 1 -77 1l2 -127q8 -84 40 -121l7 -8q-34 24 -99 24q-52 0 -97 -14q-10 -6 -33 -15q60 43 63 119l6 142q-4 4 -13 3q-11 -2 -13 -1h-372q84 100 199 259q138 191 191 258l18 23q20 -10 45 -10q52 0 114 46q-59 -83 -59 -230v-231
q53 4 87 34q15 14 54 48zM389 364l-1 340l-6 -1q-32 -45 -123 -163q-84 -108 -120 -165l-7 -11h257z" />
    <glyph glyph-name="five" unicode="5" horiz-adv-x="631" 
d="M362 -9q-28 -3 -51 -3q-34 0 -86 9q-66 11 -79 13q-33 4 -50 4q-43 0 -90 -29q49 61 68 159q4 21 10 116q19 -214 170 -214q66 0 103 31q75 80 75 205q0 140 -89 192q-46 27 -96 26q-117 -3 -196 -151v443l76 1q27 0 96 -1l102 -2q153 -3 220 33q-49 -56 -58 -69
q-30 -42 -31 -84l7 -61q-33 68 -135 68h-235v-110v-30q-1 -22 -1 -37v-42q74 93 187 93q109 0 171 -52q104 -88 104 -226q0 -99 -46 -179q-54 -93 -146 -103z" />
    <glyph glyph-name="six" unicode="6" horiz-adv-x="694" 
d="M648 830q-59 -77 -73 -89q-49 -74 -52 -165q-23 121 -96 149q-25 6 -48 6q-79 0 -156 -80q-75 -100 -74 -182q-3 -12 11 -24q74 98 210 98q149 0 213 -109q38 -65 38 -151q0 -105 -54 -180q-76 -106 -226 -106q-152 0 -245 118q-85 108 -85 265q0 205 149 323
q97 77 281 77h28q19 -1 30 -1q32 0 93 26q16 7 56 25zM481 158q11 38 11 93q0 152 -89 214q-41 28 -77 24q-67 -8 -103 -36q-31 -25 -64 -89q-9 -30 -9 -66q0 -60 24 -122.5t65.5 -103.5t105.5 -41q99 0 136 127z" />
    <glyph glyph-name="seven" unicode="7" horiz-adv-x="668" 
d="M447 714q-138 0 -272 -53q-97 -38 -168 -126q26 59 66 165q12 32 10 112q7 -3 29 -8q33 -4 68 -4h458q-2 -5 -37 -47q-23 -26 -72 -86q-89 -122 -102 -141q-33 -46 -51 -79q-40 -73 -55 -139q-11 -50 -13 -134q-3 -124 79 -174q26 -12 69 -27q-60 -2 -100 11
q-22 7 -82 26q-2 1 -11 1q-54 0 -107 -29q0 10 2 34q1 15 0 21q-4 280 336 676q-11 1 -47 1z" />
    <glyph glyph-name="eight" unicode="8" horiz-adv-x="705" 
d="M633 220q-7 -108 -129 -181q-107 -64 -223 -64q-117 0 -208 89q-60 59 -60 124q0 67 72 132q41 37 129 87l7 4q-84 34 -130 71q-69 54 -73 124q-3 56 43 108q39 45 97 69q65 27 135 27q80 0 146 -24q82 -30 112 -90q15 -30 15 -65q0 -73 -76 -122q-17 -11 -64 -40l23 -10
q194 -84 184 -239zM456 558q5 13 5 31q0 38 -16 67q-91 107 -201 114q-129 -22 -129 -101q0 -55 73 -104l184 -85q65 29 84 78zM349 355q-54 29 -73 29q-17 0 -52 -20q-87 -50 -83 -138q19 -83 77 -134q61 -55 143 -55q63 0 120 33q24 14 38 49q11 31 10 62q-2 41 -19 66
t-70 56q-25 15 -91 52z" />
    <glyph glyph-name="nine" unicode="9" horiz-adv-x="692" 
d="M609 424q0 -230 -148 -354q-85 -71 -201 -71q-11 0 -83 6q-64 5 -83 4q-46 -3 -94 -22q57 60 75 187q0 10 -2 43q-1 26 5 45q30 -218 168 -218q47 0 102 24q120 95 132 334q-2 4 -4 5q-3 2 -6 -1q-81 -133 -222 -133q-102 0 -169.5 67t-67.5 167q0 130 80 205
q88 83 198 83q84 0 173 -49q74 -41 113 -141q34 -84 34 -181zM462 515q0 88 -44 155q-50 76 -134 76q-73 0 -119 -75q-38 -64 -38 -141q0 -204 177 -204q78 0 120 57q38 51 38 132z" />
    <glyph glyph-name="colon" unicode=":" horiz-adv-x="282" 
d="M194 83q-70 1 -136 -72q2 14 2 27q0 87 -37 148q92 22 130 66q-4 -104 41 -169zM257 354q-70 1 -135 -70q1 7 1 25q0 88 -37 149q93 21 131 65q-4 -105 40 -169z" />
    <glyph glyph-name="semicolon" unicode=";" horiz-adv-x="346" 
d="M111 174q-3 -15 -3 -27q0 -32 25 -59q9 -9 52 -45q-68 -11 -117 -66q-8 -9 -84 -120q22 119 22 176q0 59 -17 104q31 -11 49 -11q33 0 73 48zM267 272q-33 11 -59 11q-47 0 -88 -35q2 16 2 23q0 61 -58 95q89 2 155 60q-3 -40 9 -82q13 -45 39 -72z" />
    <glyph glyph-name="less" unicode="&#x3c;" 
 />
    <glyph glyph-name="equal" unicode="=" 
 />
    <glyph glyph-name="greater" unicode="&#x3e;" 
 />
    <glyph glyph-name="question" unicode="?" horiz-adv-x="540" 
d="M425 728q-29 30 -52 41t-65 15q-55 5 -105 -16q-45 -28 -48 -91q4 -43 18 -63q20 -30 75 -43q-31 -4 -99 -14q-49 -13 -96 -65q18 50 18 70q0 9 -4.5 27t-4.5 27q-5 115 129 170q41 17 99 17q39 0 111 -11q154 -24 154 -133q0 -108 -138 -198q-48 -54 -48 -99
q0 -55 1 -59q4 -28 31 -62q-37 21 -89 21q-66 0 -95 -22q21 33 36.5 105t24.5 86q27 33 60 53q50 30 60 38q50 38 50 112q0 50 -23 94zM389 50q-61 -31 -87 -90q-19 55 -91 89q58 25 90 98q6 -29 32.5 -58t55.5 -39z" />
    <glyph glyph-name="at" unicode="@" 
 />
    <glyph glyph-name="A" unicode="A" horiz-adv-x="731" 
d="M199 834q6 -38 93 -98q42 -28 84 -57q48 -33 79 -62q97 -91 140 -160q40 -65 57 -152q20 -107 20 -165q0 -25 -4 -46q-7 -54 17 -99q-32 5 -137 7q-55 1 -100 -3q41 26 63 54q39 51 39 160q0 35 -3 83h-349l-3 -33q-1 -73 -2 -174q-1 -48 19 -65q8 -8 27 -25l2 -1
q-23 1 -57.5 4.5t-61.5 1.5q-46 -2 -125 -10q27 27 44 75q15 42 19 154q4 120 16 194q21 124 69 283q25 80 54 134zM492 491q-52 110 -178 197q-2 1 -24.5 18t-42.5 26q-42 -207 -45 -400h76h263q-18 95 -49 159z" />
    <glyph glyph-name="B" unicode="B" horiz-adv-x="687" 
d="M606 266q5 -32 5 -54q0 -100 -64 -152q-83 -68 -182 -68q-35 0 -105 14t-105 14q-60 0 -154 -28q69 44 69 206q0 22 -3 110q-3 83 -3 113l-3 251q-9 97 -59 159q68 -44 153 -44q34 2 124 9q72 5 127 -11q72 -22 123 -75q42 -54 42 -115q0 -102 -79 -160q-16 -12 -24 -17
q45 -19 83.5 -62t54.5 -90zM415 710q-53 62 -102 62q-143 0 -143 -234q0 -12 2.5 -43t2.5 -51v-33q71 45 161 45q38 0 62 -10q62 39 62 125t-45 139zM489 149q7 27 7 56q0 102 -87 175q-52 44 -110 44q-65 0 -118 -48v-82q-3 -63 -3 -76q0 -90 35 -137q44 -45 108 -45
q35 0 79 15q60 21 89 98z" />
    <glyph glyph-name="C" unicode="C" horiz-adv-x="739" 
d="M654 -27q-44 30 -69 26q-14 2 -24 2q-32 0 -96 -12t-97 -12q-57 0 -117 17q-115 53 -180.5 160.5t-65.5 235.5q0 241 186 374q68 38 164 38q85 0 157 -28q15 -4 33 -4q52 0 105 65q-24 -74 -33 -172q2 -71 -3 -172q-17 96 -36 140q-28 63 -83 102t-122 39
q-152 0 -210 -200q-26 -89 -26 -177q0 -29 2 -48q10 -101 38 -166q35 -80 104 -133q51 -39 101 -39q46 0 101 35q115 73 165 239q-16 -135 -16 -195q0 -75 22 -115z" />
    <glyph glyph-name="D" unicode="D" horiz-adv-x="806" 
d="M488 2q-29 -6 -66 -6q-28 0 -82 9q-26 4 -87 16q-30 7 -64 7q-75 0 -188 -39q71 37 86 107q7 34 7 181q0 4 2 136q2 117 1 154q-2 90 -7 131q-6 52 -65 121q59 -37 143 -37q42 0 124 13t123 13q127 1 221 -85q46 -42 74 -91q47 -83 47 -202q0 -151 -62 -265
q-72 -135 -207 -163zM591 600q-35 85 -79 126q-54 50 -138 50q-28 0 -62 -8q-100 -39 -105 -209q-1 -34 -1 -121q0 -25 -2.5 -74t-2.5 -73q0 -99 23 -159q56 -101 143 -101q98 0 150 37q56 40 79 132q28 80 28 219q0 101 -33 181z" />
    <glyph glyph-name="E" unicode="E" horiz-adv-x="760" 
d="M655 -9q-40 26 -88 26q-34 0 -103 -16t-104 -16q-70 0 -125 23q-114 47 -176 155q-58 101 -58 229q0 237 188 362q63 42 158 42q78 0 165 -32q17 -4 34 -4q51 0 102 61q-19 -58 -30 -164q1 -69 -3 -166q-17 94 -37 135q-66 136 -206 136q-149 0 -210 -184
q-25 -77 -30 -165l276 -1v-46h-274q0 -2 -1 -11q11 -194 145 -292q51 -37 103 -37q48 0 102 33q116 71 165 231q-15 -130 -15 -185q0 -74 22 -114z" />
    <glyph glyph-name="F" unicode="F" horiz-adv-x="597" 
d="M568 828l-40 -50q-21 -27 -31 -50q-25 -91 -24 -122q-23 128 -139 128q-18 0 -36 -3q-44 -7 -74 -48q-20 -36 -25 -110q-2 -25 -3 -141l2 -17h191v-49h-193v-13q0 -219 20 -257q16 -42 34 -62q23 -26 65 -38q-58 3 -78 5q-10 3 -51 12q-44 9 -137 -7l-58 -10q46 26 75 79
q25 45 27 122q4 184 0 412q-1 64 -8 92q-10 40 -39 62q-16 12 -55 40l41 -14q79 -27 225 -27q223 0 311 66z" />
    <glyph glyph-name="G" unicode="G" horiz-adv-x="725" 
d="M678 821q-64 -111 -77 -183l-15 -81q-15 101 -46 137q-37 45 -133 49q-120 5 -198 -122q-67 -110 -67 -237q0 -94 33 -182q55 -148 168 -165q88 6 140 69q21 36 21 99q0 36 -8 92q-28 87 -102 87q-24 0 -51 -9l-33 -11q45 59 124 59q97 0 133 -76q38 -56 38 -137
q0 -24 -4 -65q-3 -26 -1 -45q4 -41 7 -52q10 -31 47 -58q-85 32 -136 32q-29 0 -48 -10q-73 -27 -138 -27q-144 0 -239 127q-88 117 -88 265q0 110 46.5 201.5t135.5 150.5q96 63 202 63q24 0 71.5 -6t71.5 -6q72 0 146 41z" />
    <glyph glyph-name="H" unicode="H" horiz-adv-x="711" 
d="M85 749q-5 55 -24 87q-6 9 -71 79l33 -20q73 -44 149 -44q45 0 101 20q-23 -13 -47.5 -38t-29 -40t-4.5 -159v-73q93 81 227 81q47 0 96 -21q135 -58 135 -241q0 -51 -10 -102q-35 -117 -100 -193q-16 -14 -60 -65q-19 -8 -38 -27q43 63 72 141q30 84 32 155
q4 148 -51 218q-31 39 -49 57q-32 26 -86 25q-74 -2 -132 -58l-23 -23q-6 -6 -15 -22v-366q0 -50 20 -74q10 -12 61 -47q-80 13 -144 11q-30 -1 -125 -15q47 32 66.5 69.5t19.5 94.5v245q-1 225 -1 221q0 101 -2 124z" />
    <glyph glyph-name="I" unicode="I" horiz-adv-x="408" 
d="M295 -7q-75 22 -127 22t-148 -25q53 24 72 107q14 61 14 137v479q0 74 -105 107q33 -2 106 -21q69 -18 105 -18q27 0 49 7q-37 -28 -40 -82q0 -28 -1 -103v-478q0 -46 11 -69q15 -32 64 -63z" />
    <glyph glyph-name="J" unicode="J" horiz-adv-x="370" 
d="M287 792q-41 -44 -41 -258l-1 -359q0 -40 -33 -107q-12 -12 -53 -61q-67 -67 -155 -93l18 13q85 61 102 133q8 33 8 185v446q-16 95 -102 123q27 -2 88 -23q57 -19 89 -19q38 0 80 20z" />
    <glyph glyph-name="K" unicode="K" horiz-adv-x="727" 
d="M687 1q-3 -1 -32 -6q-8 -3 -43 2q-59 8 -56 8q-13 0 -50 -6t-67 -3q58 14 58 63q0 39 -19 105q-25 88 -66 133q-56 62 -156 62h-36v-28v-22q-1 -12 -1 -15v-59q0 -138 27 -206q10 -16 29 -26q4 -1 11 -5t10 -5q-7 -1 -44 3q-64 10 -88 10q-55 0 -67 -2q-33 -3 -72 -10
q62 36 75 90q6 25 6 158v417q0 54 -13 84q-11 25 -23 37q-9 9 -37 29l-32 22q18 -9 93 -28q87 -17 113 -17q36 0 66 10q-45 -35 -51 -77q-3 -22 -3 -197v-117h32q48 4 93 45q94 85 123 171q5 40 5 38q0 38 -34 90l47 -49q26 -27 77 -44q3 -1 56 -31q-7 2 -41.5 -7t-70.5 -52
q-41 -50 -81 -99q-29 -34 -56 -54q-31 -23 -44 -26q54 3 138 -62q95 -74 152 -253q19 -60 72 -71z" />
    <glyph glyph-name="L" unicode="L" horiz-adv-x="559" 
d="M562 0q-51 8 -67 8q-7 0 -67 -8t-84 -8q-55 0 -118 11q-40 7 -82 7q-91 0 -143 -21q61 40 68 162q1 29 5 105q1 12 0 405q0 100 -48 115l-24 3q4 0 38 9q28 8 55 6q40 -2 115 20q80 24 94 25q-27 -15 -71 -59q-33 -40 -42 -152q-3 -42 -3 -161q0 -171 9 -249
q16 -142 70 -177q29 -19 71 -19q34 0 57 4q29 5 70 51q50 57 67 136q1 -7 1 -25q0 -13 -1 -40t-1 -40q0 -74 31 -108z" />
    <glyph glyph-name="M" unicode="M" horiz-adv-x="977" 
d="M904 480q0 -135 -62 -266q-60 -127 -149 -202l-25 -21q14 22 32 61q71 151 71 403q0 54 -7 109q-17 130 -83 183q-31 25 -63 25q-20 0 -34 -10q-6 -4 -30 -28q-37 -37 -42 -90l1 -544q0 -65 61 -110q-64 30 -127 30q-51 0 -97 -20l-30 -13q53 41 67 96q4 16 9 107
q0 9 2 219q2 213 -2 222q-10 94 -79 129q-20 10 -33 10q-20 0 -32.5 -13t-24.5 -27q-81 -115 -81 -287q0 -278 85 -452q-101 81 -164.5 215.5t-63.5 264.5q0 94 43.5 180.5t120.5 138.5q50 27 105 27q59 0 115 -38q51 -25 78 -25q10 0 83.5 29.5t116.5 29.5q13 0 26 -4
q68 -20 125 -87q88 -103 88 -242z" />
    <glyph glyph-name="N" unicode="N" horiz-adv-x="751" 
d="M678 653q27 -79 27 -152q0 -99 -68 -248q-48 -105 -137 -200q-24 -19 -72 -60q94 129 127 303q20 104 20 183q0 162 -86 240q-64 44 -126 44q-26 0 -45 -8q-73 -31 -93 -96q3 -21 2 -265l-1 -262q0 -11 5 -69q10 -40 61 -74q-22 0 -65 9t-65 9q-20 0 -59 -7
q-50 -9 -53 -9l-49 -5q57 28 74 66q32 47 27 175q-2 46 -1 211l1 222q0 55 -31 99q-25 35 -57 57q68 -47 139 -47q26 0 138 22q51 10 101 10q38 0 72 -6q158 -28 214 -142z" />
    <glyph glyph-name="O" unicode="O" horiz-adv-x="741" 
d="M628 626q42 -89 42 -212q0 -193 -99 -323q-83 -110 -226 -110q-48 0 -95 13q-100 28 -169 134q-62 96 -74 208q-3 33 -3 65q0 163 87 283q91 125 252 125q135 0 221 -90q40 -41 64 -93zM457 706q-50 59 -119 59q-34 0 -65 -12q-77 -30 -131 -203q-11 -35 -15 -119
q-6 -134 38 -239q52 -122 138 -163q21 -6 41 -6q79 0 144 114.5t65 267.5q0 188 -96 301z" />
    <glyph glyph-name="P" unicode="P" horiz-adv-x="579" 
d="M524 712q32 -69 32 -148q0 -106 -53 -179q-59 -81 -161 -81q-73 0 -186 74l-1 -257q0 -46 34 -88q31 -37 75 -45q-23 -3 -70 10q-51 15 -72 15q-34 0 -120 -23q38 23 50 84q7 34 7 101v524q0 41 -29 90q-12 21 -29 38q75 -39 136 -39q26 0 47 8q74 28 140 28
q131 0 200 -112zM428 694l-22 36q-28 46 -92 46q-37 0 -77 -17q-81 -44 -81 -207v-124q23 -24 50 -39q56 -31 96 -35q75 -7 118 72q34 64 34 146q0 46 -26 122z" />
    <glyph glyph-name="Q" unicode="Q" horiz-adv-x="785" 
d="M508 25q23 -35 25 -38q13 -15 30 -15q23 0 103 31q-58 -65 -58 -130q0 -39 14 -94q-51 46 -83 63q-46 26 -99 26q-10 0 -40 -2q94 47 94 94q0 20 -14 50q-61 -27 -115 -27q-62 0 -158 36q-97 62 -150 164t-52 219q1 201 138 318q94 80 213 80q188 0 300 -163
q64 -92 63 -244q0 -128 -63 -228q-55 -89 -148 -140zM537 650q-65 104 -182 110q-68 -8 -114 -52q-40 -38 -59 -83q-41 -96 -41 -228q0 -176 58 -264q71 -107 184 -105q42 1 92 43q42 36 68 79q47 79 47 235q0 180 -53 265z" />
    <glyph glyph-name="R" unicode="R" horiz-adv-x="615" 
d="M574 34q18 -33 85 -71q-82 24 -122 47q-74 43 -100.5 122t-35.5 100q-25 54 -62 83q-56 44 -137 40v-11q0 -195 3 -222q8 -72 40 -97q12 -11 50 -29q-107 10 -164 10q-63 0 -130 -10q49 18 70 52q15 25 15 113l-3 493q0 58 -25 112q-21 47 -52 75q78 -50 128 -50
q25 0 79 11q64 13 145 -2q43 -8 85 -31q35 -19 47 -28q21 -14 36 -34q45 -59 45 -134q0 -69 -26 -109q-49 -76 -140 -94q1 -1 8 -5q123 -67 137 -222q7 -79 24 -109zM441 666q-10 19 -31 52q-41 55 -109 55q-64 0 -84 -72q-13 -48 -13 -280v-26h69q66 -2 73 0q28 1 44 10
q22 12 46 47q26 59 26 105q0 60 -21 109z" />
    <glyph glyph-name="S" unicode="S" horiz-adv-x="687" 
d="M567 800l20 20q-27 -54 -60 -153q-8 -24 -32 -93l-2 63q-19 71 -129 111q-58 15 -93 15q-52 0 -85 -26q-55 -43 -48 -121q5 -50 74 -87q12 -7 97 -36q149 -52 191 -79q86 -55 107 -165q4 -21 4 -40q0 -107 -102 -179q-51 -36 -153 -36q-35 0 -66 6q-14 3 -69 19
q-44 13 -71 13q-68 0 -144 -62q84 86 87 193l4 148q17 -117 70 -187q65 -84 174 -84q62 0 106 33q48 37 48 97q0 16 -1 24q-6 52 -47 86q-32 27 -109 59q-34 14 -122 50q-164 70 -166 193q-2 117 80 178q51 38 114 38q38 0 111.5 -18.5t110.5 -18.5q62 0 101 39z" />
    <glyph glyph-name="T" unicode="T" horiz-adv-x="694" 
d="M289 666q0 33 -1 39q-2 22 -10 37q-14 13 -94 10q-49 -18 -69 -40q-28 -31 -61 -124q6 68 5 87q-3 63 -55 154q55 -33 107 -40q14 -2 127 -5q90 -3 210 0h47t67 1q67 1 102 24l28 18q-47 -65 -66 -134q-16 -59 -14 -100q-2 8 -9 29q-34 97 -62.5 116t-91.5 14
q-42 -3 -40 -96v-518q0 -8 5 -37q6 -38 13 -51q17 -29 96 -67q-35 2 -103 10q-57 7 -77 7q-30 0 -56 -3l-27 -3q-82 -9 -107 -10q66 23 96 55q15 16 28.5 56.5t12.5 79.5q0 169 -1 491z" />
    <glyph glyph-name="U" unicode="U" horiz-adv-x="741" 
d="M687 -10q-71 12 -88 17q-51 16 -120 5q-38 -13 -101 -25q-40 -4 -76 -4q-141 0 -221 82.5t-80 223.5q0 102 45 206q39 90 146 211q16 18 47 41l58 43q-79 -87 -121.5 -205.5t-42.5 -239.5q0 -241 146 -303q54 -23 78 -23q11 0 30 3q60 9 77 68q11 37 12 142l3 355
q0 5 1 17t1 19q0 73 -30 98q-33 21 -41 27q97 -7 266 71q-55 -31 -71 -100q-5 -22 -13 -132q-2 -24 0 -220l2 -234q5 -40 10 -75q12 -35 83 -68z" />
    <glyph glyph-name="V" unicode="V" horiz-adv-x="805" 
d="M736 296q-72 -138 -194 -222q-40 -27 -74 -45q-48 -22 -95 -45l-22 -11q-11 38 -44 123q-20 61 -76 259q-15 63 -52 205q-34 123 -63 161q-40 51 -112 102q85 -36 127 -50q68 -22 152 -22q17 0 55 2q-58 -24 -58 -69q0 -12 2 -29q20 -141 148 -583q11 4 36 17
q95 63 133 147q61 134 57 257q-10 73 -18 104q-13 48 -39 80q-11 14 -63 57l-70 31q21 -1 43 -3q29 -2 62 -12q88 -26 130 -64q73 -83 73 -196q0 -121 -38 -194z" />
    <glyph glyph-name="W" unicode="W" horiz-adv-x="905" 
d="M509 121q-37 -24 -105 -66q-22 -14 -129 -76q-12 46 -38 153l-118 493q-32 132 -115 218q71 -59 170 -59q39 0 88 21q-37 -36 -37 -97q0 -30 9 -85q17 -107 57 -276l60 -257q1 -2 24 12q50 31 121 77q-12 60 -49 228q-22 99 -37 150q-25 85 -60 108q15 -5 27 -5
q67 0 110 82q-17 -54 -17 -89q0 -26 13 -82l30 -131q12 -59 34 -151q22 -80 53 -203q58 49 104 192q25 78 25 230q0 99 -39 188t-94 124q36 -12 57 -22q45 -19 70 -39q73 -58 108 -145q28 -68 25 -131q-3 -70 -28 -151q-19 -58 -39 -95q-92 -169 -239 -257q-13 36 -41 141z
" />
    <glyph glyph-name="X" unicode="X" horiz-adv-x="843" 
d="M779 -3q-27 -1 -103 7q-98 10 -146 10q-60 0 -110 -10q63 26 63 60q0 22 -18 54q-29 57 -108 190l-32 48q-53 -37 -89 -70q-75 -68 -75 -179q0 -46 19 -69q14 -18 63 -45q-92 16 -116 16q-53 0 -101 -19q-16 28 -16 61q0 158 297 342l-1 2q-10 23 -42 85q-33 53 -108 181
q-51 92 -95 117q-23 21 -57 35q47 -10 66 -18q45 -19 108 -19q36 0 126 22q-15 -16 -15 -39q0 -17 21 -79q15 -24 107 -206q14 5 75 51q33 21 75 54q27 33 27 83q0 6 -2 36q-16 37 -39 61q-2 2 -39 34q36 -11 75 -11q101 0 145 48q7 -34 7 -65q0 -49 -22 -92
q-44 -85 -157 -163q-35 -24 -107 -72l-6 -4q73 -122 227 -364q20 -31 52 -47q2 -1 17 -14q10 -7 34 -12z" />
    <glyph glyph-name="Y" unicode="Y" horiz-adv-x="763" 
d="M533 663q0 36 -16 73q-17 41 -44 61q51 -17 87 -17q54 0 82 36q15 -22 15 -61q0 -89 -49 -167q-69 -143 -195 -326l-228 -332q-57 -13 -148 -72l120 106q37 52 180 266q-21 44 -58 118q-56 110 -127 240q-22 51 -63 129q-21 28 -37 46q-30 36 -51 53q64 -30 131 -38
q48 -6 89 19q-15 -28 -14 -50q28 -72 94 -196l106 -199q35 49 96 155q30 78 30 156z" />
    <glyph glyph-name="Z" unicode="Z" horiz-adv-x="712" 
d="M450 312q45 0 84 -28q70 -50 70 -138q0 -68 -22 -146q-40 26 -71 26q-71 0 -26 1q-23 0 -47 -10l-57 -23q34 48 44 67q15 27 15 49q0 17 -7 35q-31 43 -81 43q-21 0 -54 -8q-104 -25 -242 -137l-53 -43q70 88 271 360q52 71 188 259q1 4 9.5 16t8.5 14q0 9 -24 11
q-39 3 -63 3q-209 0 -291 -172q26 84 26 133q0 28 -2 47q-8 77 -78 150q128 -61 365 -61q156 0 258 32q-63 -75 -91 -111q-10 -13 -159 -217q-130 -178 -186 -242q32 23 109.5 56.5t105.5 33.5z" />
    <glyph glyph-name="bracketleft" unicode="[" horiz-adv-x="323" 
d="M58 78q5 -52 19 -90q21 -56 44 -78q42 -43 76 -61q20 -11 79 -32q-23 20 -71 62q-36 40 -45 99q-6 34 -6 167l1 308q1 139 5 167q10 59 46 99q24 21 71 62q-59 -21 -79 -31q-34 -19 -77 -61q-22 -23 -43 -79q-15 -37 -19 -90z" />
    <glyph glyph-name="backslash" unicode="\" horiz-adv-x="520" 
d="M301 -10l11 49q4 18 4 39q0 112 -125 291q-48 69 -85 146q-29 61 -31 79q0 5 -7 34q-2 12 -2 17q0 12 4 33q15 80 61 127l-11 -49q-4 -18 -4 -35q0 -100 135 -297q38 -55 75 -140q29 -66 30 -83q1 -8 4.5 -25t3.5 -26q0 -94 -63 -160z" />
    <glyph glyph-name="bracketright" unicode="]" horiz-adv-x="319" 
d="M264 78q-5 -52 -19 -90q-21 -56 -44 -78q-42 -43 -76 -61q-20 -11 -79 -32q23 20 71 62q36 40 45 99q6 34 6 167l-1 308q-1 139 -5 167q-10 59 -46 99q-24 21 -71 62q59 -21 79 -31q34 -19 77 -61q22 -23 43 -79q15 -37 19 -90z" />
    <glyph glyph-name="asciicircum" unicode="^" horiz-adv-x="805" 
 />
    <glyph glyph-name="underscore" unicode="_" 
 />
    <glyph glyph-name="grave" unicode="`" 
 />
    <glyph glyph-name="a" unicode="a" horiz-adv-x="592" 
d="M576 0q-22 14 -74 14q-27 0 -102 -10q-112 -15 -144 -15q-146 0 -204 79q-29 40 -29 101q0 62 29 112.5t67 72.5q50 29 101 41q42 9 152 34q1 -1 -52 -30q-157 -85 -174 -169q-2 -12 -4 -39q-2 -42 26 -78q23 -30 54 -47q40 -23 77 -18q92 11 105 69q4 17 4 87v224
q0 146 -133 146q-44 0 -94 -18q-33 -12 -50 -42q-10 -28 -36 -102q2 83 -21 134q-16 37 -67 98q83 -56 134 -56q26 0 70 7q83 13 112 13q130 0 172 -85q20 -40 24 -113q1 -17 1 -126.5t1 -138.5q3 -93 55 -145z" />
    <glyph glyph-name="b" unicode="b" horiz-adv-x="601" 
d="M5 815q90 -58 120 -74q45 -23 75 -20q-23 -35 -23 -99q0 6 -1 -40q-1 -39 0 -53q57 36 157 36q118 0 183 -70q80 -86 80 -212q0 -134 -69 -211q-73 -80 -206 -80q-44 0 -199 21q-47 -3 -110 -13q3 4 28 19q29 48 29 182v415q-4 74 -14 112q-15 53 -50 87zM469 161
q9 36 9 127q0 90 -24 139q-13 26 -17 33q-9 14 -21 24q-49 41 -113 41q-38 0 -80.5 -20.5t-42.5 -41.5q0 -138 -1 -326q-1 -47 51 -85q37 -19 84 -19q70 0 114 49q30 33 41 79z" />
    <glyph glyph-name="c" unicode="c" horiz-adv-x="646" 
d="M578 642l-34 -76q-22 -49 -19 -86q4 -50 9 -114q-29 129 -120 170q-37 17 -78 17q-71 0 -119 -46q-79 -76 -79 -210q0 -72 16 -120q50 -148 163 -157q58 -5 108.5 25t76.5 83l23 68q-2 -24 -2 -42q0 -122 40 -174q-37 15 -96 15q-30 0 -89 -5t-89 -5q-82 0 -133 29
q-75 43 -115 122q-37 74 -36 164q2 92 52 169q53 82 138 108q59 18 112 17q2 0 157 -14q52 4 114 62z" />
    <glyph glyph-name="d" unicode="d" horiz-adv-x="616" 
d="M611 858q-17 -18 -43 -75q-12 -26 -21 -75q-8 -43 -8 -64q0 -436 4 -532q8 -57 51 -107q-55 9 -96 9t-79 -9q-72 -17 -134 -17q-143 0 -215 87q-65 80 -65 226q0 30 1 45q9 142 142 215q51 28 117 28q103 0 170 -47q7 1 5 23l-2 37v38q0 90 -22 130q46 2 108.5 32
t86.5 56zM406 479q-66 67 -123 67q-123 0 -159 -175q-2 -58 -2 -74q0 -103 35 -174q45 -92 138 -92q16 0 34 4q50 11 68 23q31 20 40 71q7 40 4 191q-3 116 -35 159z" />
    <glyph glyph-name="e" unicode="e" horiz-adv-x="570" 
d="M18 316q0 102 72 192q86 107 243 107q33 0 46.5 -1.5t43.5 -5.5t46 -4q54 0 83 32q-14 -39 -14 -103q0 -66 12 -123q-28 65 -83 113q-62 55 -126 55q-85 0 -136 -78q-37 -44 -44 -155h246v-48h-250q-2 -19 -2 -36q0 -87 38 -136q31 -40 75 -62q13 -6 45.5 -15t49.5 -9
q61 0 108 43q25 19 52 56q32 44 49 83q-21 -103 -21 -186q0 -34 1 -44q-15 6 -32 13t-30 7q-26 0 -79 -8.5t-80 -8.5q-108 0 -172 34q-67 34 -109 114q-12 17 -22 71t-10 103z" />
    <glyph glyph-name="f" unicode="f" horiz-adv-x="490" 
d="M247 340q0 -114 2 -131q2 -35 9 -107q16 -51 47 -73q15 -11 36 -29q-53 4 -105 4q-83 0 -153 -10q54 51 64 164v309h-121q23 15 67 53l36 39q13 0 16 1v82q0 42 9 97q8 50 46.5 83.5t84.5 33.5q70 0 123 -26q50 -23 51 -78q2 -37 -32 -75q-26 -25 -43 -33
q-28 -16 -80 -22q46 24 62 43q13 16 33 59q0 2 2 11.5t2 15.5q0 19 -14 35t-57 15q-36 0 -68 -49q-14 -22 -16 -82q1 20 1 -111h121q-10 -3 -38 -34q-31 -33 -37 -37l-29 -21q-17 0 -19 -1v-126z" />
    <glyph glyph-name="g" unicode="g" horiz-adv-x="676" 
d="M447 475q-24 31 -95 31q-44 0 -71 -13q-56 -27 -78 -64q-29 -47 -25 -133q3 -69 38 -125q41 -65 123 -65q40 0 76 13q49 17 51 50q0 41 2 241q-2 23 -5 34q-5 19 -16 31zM99 -232q-65 63 -92 66q73 6 117 28q22 11 57 49t53 69q-4 -16 -8 -31q-6 -28 -5 -46
q5 -75 25 -107q24 -39 81 -39q99 3 175 70q61 54 74 109q9 37 9 66q0 78 -57 97q-9 4 -40 4q-13 0 -48 -17q-51 -25 -116 -25q-100 0 -170 43q-92 57 -97 173q-3 84 31 149q48 89 157 117q48 12 101 11q35 -1 148 -16q22 -5 41 -5q42 0 120 28q-41 -38 -58 -78
q-25 -58 -25 -137q-1 -5 0 -117v-46q5 -21 32 -40t42 -64q12 -39 12 -79q0 -55 -45 -132q-56 -98 -148 -143q-119 -58 -277 -16l-36 18q-26 15 -53 41z" />
    <glyph glyph-name="h" unicode="h" horiz-adv-x="632" 
d="M369 546q77 0 132 -35q92 -72 92 -170q0 -45 -4 -62q-32 -136 -140 -233q-21 -19 -91 -61q2 4 10 13l12 13q106 125 96 317q-3 55 -26 98q-27 49 -74 66q-25 9 -54 9q-69 0 -131 -45q-4 -270 11 -383q13 -37 55 -73q-92 8 -83 8q-69 0 -146 -7q64 37 64 148v432
q0 90 -18 142q-21 60 -71 91q29 -20 110 -65q40 -15 91 -16q-13 -38 -13 -236q26 19 84 35q55 14 94 14z" />
    <glyph glyph-name="i" unicode="i" horiz-adv-x="309" 
d="M210 680q-31 -16 -78 -74q-28 31 -39 42q-24 24 -39 32l2 6q55 39 76 70q7 -13 78 -76zM217 537q-26 -31 -27 -68q-2 -136 -2 -121q0 -299 32 -324l31 -24q-60 5 -109 5q-22 0 -102 -18q0 2 17 16l20 18q15 38 15 81v82q2 173 -8 313q-16 42 -81 88q99 -29 177 -29
q34 0 63 4q-3 -2 -26 -23z" />
    <glyph glyph-name="j" unicode="j" horiz-adv-x="298" 
d="M197 595q-25 -12 -65 -58q-20 22 -63 58l1 4q43 29 62 55q10 -16 31 -32q13 -10 34 -27zM83 43q7 47 0 384q-1 46 -61 91q93 -34 140 -34q34 0 76 17q-53 -49 -53 -156v-345q-2 -75 -38 -109q-61 -58 -146 -86q82 90 82 238z" />
    <glyph glyph-name="k" unicode="k" horiz-adv-x="561" 
d="M43 716q95 2 181 129q-25 -48 -44 -131q-22 -95 -22 -155v-278q40 38 143.5 138t102.5 155q-1 52 -51 52q-44 0 -85 -66q16 45 56 88q32 33 58 46q54 27 93 27q49 0 51 -42q1 -35 -63 -115q-40 -51 -99 -124q-71 -81 -132 -139q64 -8 122 -55q67 -54 97 -136
q46 -126 121 -156q-25 3 -62 12q-81 19 -160 132q-47 68 -79 95q-53 45 -99 45q-7 0 -13 -2q-4 -60 -4 -115q0 -102 66 -137q-73 17 -110 17q-43 0 -108 -17q53 43 55 115q3 125 3 418q0 181 -18 199z" />
    <glyph glyph-name="l" unicode="l" horiz-adv-x="284" 
d="M185 69q15 -31 54 -70q-2 -2 -4 -2q-17 2 -52 7q-37 15 -63 15q-13 0 -44 -8t-50 -8q-15 0 -23 1q43 25 55 121q5 41 5 138v45q-1 45 -1 89v140q1 136 0 151q-3 41 -32 67q60 5 82 13q61 24 105 79q-59 -91 -59 -217v-398q0 -47 10 -92q6 -23 17 -71z" />
    <glyph glyph-name="m" unicode="m" horiz-adv-x="843" 
d="M631 530v-1q-21 24 -49.5 32.5t-52.5 1.5q-24 -6 -29 -9q-15 -6 -34 -21q26 -43 26 -111q0 -47 -15 -123q-5 -25 -22.5 -62.5t-44.5 -75.5q-25 -34 -45 -50q-36 -27 -44 -35q80 108 80 276q0 30 -3 73q-8 112 -111 140q-11 3 -24 3q-85 0 -92 -85q0 -6 -1 -109l-1 -198
q0 -92 11 -117q9 -30 57 -76q-46 25 -113 25q-60 0 -123 -16q53 30 65 98q5 29 5 355v31q0 59 -12 95q-13 40 -48 79q36 -34 70 -45q26 -8 70 -8q7 0 81 9q52 6 93 0q55 -8 122 -49q33 26 50 34q40 20 95 25q39 3 108 -27q40 -25 70 -79q24 -54 24 -127q0 -169 -111 -286
q-28 -30 -89 -79q-23 -19 -53 -32q-25 -11 -50 -21q72 48 135 171q52 101 49 228q-3 119 -44 166z" />
    <glyph glyph-name="n" unicode="n" horiz-adv-x="649" 
d="M418 84q46 130 46 247q0 114 -53 209q-47 65 -122 65q-60 0 -79 -69q-16 -60 -18 -196l-2 -168q-1 -56 13 -124q13 -32 45 -58q-58 16 -112 16q-58 0 -135 -19q59 33 73 119q7 43 7 219q0 -1 2 73l2 70q0 96 -30 142l-25 38q63 -41 122 -41q25 0 77.5 14.5t76.5 14.5
q130 0 220 -109q50 -60 50 -162q0 -73 -25 -133q-26 -64 -72 -130q-64 -96 -129 -130q1 1 30 40q24 31 38 72z" />
    <glyph glyph-name="o" unicode="o" horiz-adv-x="661" 
d="M575 475q34 -59 34 -150q0 -132 -58 -206q-108 -138 -233 -138q-42 0 -87 16q-84 30 -132 74q-53 50 -77 130q-17 56 -17 110q0 133 83 240q86 85 210 85q131 0 217 -77q43 -39 60 -84zM410 544q-46 51 -110 51q-148 0 -169 -254q4 -85 13 -128q12 -63 44 -110
q54 -81 145 -81q41 0 84 60q36 51 49 107q10 43 10 117q0 165 -66 238z" />
    <glyph glyph-name="p" unicode="p" horiz-adv-x="693" 
d="M75 509q-30 73 -72 110q104 -62 194 -62q10 0 98 10q57 6 108 -2q88 -15 142 -54q89 -80 89 -215q0 -126 -77 -207q-49 -52 -112 -77q-61 -14 -101 -14q-91 0 -140 76l-2 -34q-3 -51 -3 -115q0 -126 35 -155q-28 9 -59 9q-84 0 -163 -64q13 17 37 50q21 30 29 69l3 537
q1 110 -6 138zM217 116q32 -45 73 -62q33 -14 61 -14q40 0 62 15q19 13 39 48q51 72 51 202q0 101 -35 156q-23 46 -63 59q-36 12 -72 12q-92 0 -124 -71q-12 -30 -12 -145q0 -151 20 -200z" />
    <glyph glyph-name="q" unicode="q" horiz-adv-x="651" 
d="M661 -214q-79 -97 -132 -97q-64 0 -97 53q-28 45 -28 113q-3 29 -5 103q-1 59 -3 64q-23 -8 -61 -26q-34 -9 -70 -9q-113 0 -183 62q-39 35 -60 102q-17 57 -17 119q0 49 13 91q56 182 246 198q28 5 49 5t65 -8t64 -8q68 0 156 72q-64 -77 -79 -178q-6 -40 -6 -167v-384
q0 -138 57 -138q24 0 91 33zM395 456l-14 29q-8 17 -19 24q-32 20 -66 20q-33 0 -72 -16q-91 -70 -91 -228q0 -178 104 -236q36 -20 78 -20q72 0 84 58v114q0 195 -4 255z" />
    <glyph glyph-name="r" unicode="r" horiz-adv-x="569" 
d="M171 104q15 -73 64 -111q-42 21 -105 21q-58 0 -129 -18q47 32 60 88q2 8 2 93v171q0 6 1 47q1 33 0 69q-7 53 -26 87q-8 17 -14.5 32t-19.5 25q82 -43 127 -43q21 0 41 9q40 18 79 37q33 13 66 13q36 0 108 -32q31 -14 41 -16q6 -1 51 -6q-99 -21 -176 -163q9 41 9 71
q0 46 -23 77t-54 31q-13 0 -36 -11q-19 -9 -39 -19q-26 -18 -27 -94q1 -103 0 -358z" />
    <glyph glyph-name="s" unicode="s" horiz-adv-x="564" 
d="M516 92q-12 -31 -33 -50q-13 -11 -48 -32q-25 -15 -49 -17q-6 -1 -58 -1q-40 0 -108 12l-113 20q-17 5 -26 5q-23 0 -34 -4q-19 -8 -40 -34q20 48 28 75q19 60 16 109l-5 98q3 -10 10 -33q58 -193 187 -204q23 -2 32 -2q79 0 120 50q16 26 16 49q0 27 -21 52
q-45 37 -182 87q-99 36 -141 83q-28 31 -28 77q0 36 10 67q50 93 172 93q27 0 87 -8q11 -1 63 -14q33 -8 53 -8q22 0 36 11q29 47 44 61q-37 -114 -46 -272q-2 7 -21 64q-16 47 -34 68q-34 39 -98 53q-46 10 -79 10q-53 0 -84 -25q-35 -27 -35 -78q0 -20 6 -27
q25 -31 69 -49q114 -29 215 -63q50 -17 100 -67q29 -29 29 -97q0 -34 -10 -59z" />
    <glyph glyph-name="t" unicode="t" horiz-adv-x="429" 
d="M391 568l-87 -62h-45q-14 0 -15 -8t-2 -46q0 -55 -1 -114q-1 -119 1 -183q2 -52 42 -99q36 -42 87 -66q-88 7 -96 8q-42 5 -62 16q-62 34 -74 137q-1 88 1 287q1 76 -36 76q-56 0 -97 -4q52 30 121 74v123q0 79 -74 174q23 -19 82 -69q35 -29 68 -29q23 0 45 16v-231h142
z" />
    <glyph glyph-name="u" unicode="u" horiz-adv-x="624" 
d="M556 -3q-58 27 -123 27q-4 0 -59 -17q-81 -25 -128 -18q-95 14 -164 56q-80 60 -80 227q0 77 35 138q32 54 111 124q0 4 98 78q-117 -177 -117 -355q0 -98 45 -167q50 -54 109 -54q18 0 35 5q62 18 77 71q5 16 6 52q1 26 2 53q1 109 0 195q3 108 -50 157q5 3 11 -8
q20 -5 38 -5q83 0 183 73q-49 -55 -66 -144q-8 -43 -11 -143q-3 -103 3 -270q3 -24 5 -27q7 -15 40 -48z" />
    <glyph glyph-name="v" unicode="v" horiz-adv-x="709" 
d="M610 438q-28 -117 -110 -237q-47 -69 -161 -202q-87 187 -253 524q-28 56 -29 59q-17 26 -53 53q3 -2 39 -23q62 -33 115 -33q45 7 99 32q-23 -38 -23 -75q0 -16 3 -25q65 -190 155 -360l9 -17q53 73 89 156q43 99 43 173q0 60 -35 107l-72 56q77 -23 117 -23q42 0 65 22
q20 -31 20 -76q0 -37 -18 -111z" />
    <glyph glyph-name="w" unicode="w" horiz-adv-x="909" 
d="M690 563q-12 16 -37 55q80 -34 122 -102q36 -61 36 -135q0 -56 -20 -104q-31 -75 -90 -142l-74 -78q-10 -12 -24 -21q-20 -14 -43 -36l-28 -26q-33 78 -82 189q-19 -18 -46 -44q-48 -50 -137 -139q-24 50 -170 467q-7 22 -28 77q-10 27 -12 30q-7 14 -20 24l-33 26
q51 -21 92 -21q38 0 92 22q-18 -25 -18 -51q0 -11 5 -25q21 -62 92 -258q52 -142 60 -157l106 108q-37 101 -75 219q-5 18 -20.5 66.5t-64.5 85.5q55 -23 104 -23q40 0 34 0q16 1 28 9q-8 -14 -8 -31q0 -14 64 -207q9 -28 10 -27q7 8 23 31q26 43 26 104q0 83 -52 125
q24 -18 51 -18t48 23q10 -21 10 -54q0 -63 -14 -122.5t-71 -138.5q21 -64 60 -166q54 46 91.5 143t37.5 193q0 75 -25 129z" />
    <glyph glyph-name="x" unicode="x" horiz-adv-x="710" 
d="M706 -1q-39 -1 -121 1l-122 3q-46 0 -87 -3q53 20 53 48q0 17 -14 39q-52 82 -104 160q-22 4 -72 -38q-74 -62 -74 -131q0 -16 4 -32q5 -20 63 -50q-78 12 -96 12q-39 0 -81 -14q-14 20 -14 43q0 114 245 248q-11 16 -41 60q-118 177 -179 219q-26 18 -62 40
q10 -1 69 -26q45 -19 87 -19q43 0 123 19q-13 -12 -13 -29q0 -11 7 -29t10 -27q45 -65 91 -144q25 8 59 32q42 29 57 46q24 28 24 66q0 6 -2 30q-14 28 -61 59q42 -15 88 -15q69 0 97 27q5 -27 5 -43q0 -36 -19 -64q-43 -62 -132 -117q-61 -37 -93 -55q117 -167 187 -263
q27 -37 118 -53z" />
    <glyph glyph-name="y" unicode="y" horiz-adv-x="669" 
d="M184 402q-66 125 -104 159q-34 23 -76 57q99 -44 160 -44q47 0 84 22q-12 -20 -11 -48q40 -99 89 -181l102 -172q40 64 90 156q25 65 25 120q0 79 -55 124q48 -14 80 -14q51 0 78 32q14 -22 14 -56q0 -74 -40 -138q-51 -103 -189 -310q-43 -67 -206 -307q-24 -2 -66 -23
t-76 -50l119 116q10 10 53 74q35 53 104 159z" />
    <glyph glyph-name="z" unicode="z" horiz-adv-x="742" 
d="M452 216q79 8 125 -26q64 -46 64 -123q0 -61 -30 -112q-28 25 -72 25q-35 0 -89 -28l-52 -27q37 35 52 59.5t15 43.5q0 18 -7 32q-20 38 -85 38q-26 0 -59 -7q-47 -10 -118 -48t-141 -76l-48 -24q93 99 280 314q54 63 201 235q14 16 14 24q0 16 -88 16q-223 0 -311 -157
q28 77 28 122q0 22 -2 42q-7 70 -82 137q140 -58 389 -58q160 0 266 30q-20 -23 -82 -89q-24 -25 -173 -203q-99 -118 -197 -216q32 21 101 47t101 29z" />
    <glyph glyph-name="braceleft" unicode="{" 
 />
    <glyph glyph-name="bar" unicode="|" 
 />
    <glyph glyph-name="braceright" unicode="}" 
 />
    <glyph glyph-name="asciitilde" unicode="~" horiz-adv-x="433" 
d="M71 353l28 22q28 22 59 22q41 0 87 -41q16 -15 44 -29q34 -17 48 -11q6 0 24 5q5 3 19 11q43 31 80 83l-28 -21q-25 -19 -51 -19q-41 0 -94 45q-18 15 -50 26q-22 7 -34 7q-5 0 -8.5 -0.5t-12.5 -3.5q-4 0 -13 -3q-48 -23 -98 -93z" />
    <glyph glyph-name="nonbreakingspace" unicode="&#xa0;" 
 />
    <glyph glyph-name="exclamdown" unicode="&#xa1;" 
 />
    <glyph glyph-name="cent" unicode="&#xa2;" 
 />
    <glyph glyph-name="sterling" unicode="&#xa3;" 
 />
    <glyph glyph-name="currency" unicode="&#xa4;" 
 />
    <glyph glyph-name="yen" unicode="&#xa5;" 
 />
    <glyph glyph-name="brokenbar" unicode="&#xa6;" 
 />
    <glyph glyph-name="section" unicode="&#xa7;" 
 />
    <glyph glyph-name="dieresis" unicode="&#xa8;" 
 />
    <glyph glyph-name="copyright" unicode="&#xa9;" horiz-adv-x="789" 
d="M60 574q23 59 76.5 104.5t121.5 66.5q75 23 140 23q68 0 139 -27.5t118 -71.5q108 -131 108 -273q0 -174 -118 -280q-100 -90 -241 -90q-187 0 -310 149q-71 86 -71 236q0 101 37 163zM660 430q-11 113 -66 192q-69 98 -188 98q-99 0 -157 -59q-105 -106 -105 -257
q0 -73 30 -148q57 -143 197 -171q20 -4 43 -4q85 0 147 59q57 55 80 141q15 55 19 149zM539 646q-21 -68 -19 -105q1 -22 5 -86q-26 141 -117 141q-42 0 -70 -35q-47 -58 -47 -158q0 -51 10 -91q28 -111 96 -118q36 -4 67 22q27 22 42 59l14 52q-5 -48 -5 -73q0 -52 15 -78
q-22 3 -43 3q-20 0 -60 -6t-59 -6q-36 0 -66 22q-90 65 -89 216q0 64 27 121q32 66 85 88q30 12 68 12l91 -10q33 5 55 30z" />
    <glyph glyph-name="ordfeminine" unicode="&#xaa;" 
 />
    <glyph glyph-name="guillemotleft" unicode="&#xab;" 
 />
    <glyph glyph-name="logicalnot" unicode="&#xac;" 
 />
    <glyph glyph-name="minus" unicode="&#xad;" 
 />
    <glyph glyph-name="minus" unicode="&#x2212;" 
 />
    <glyph glyph-name="registered" unicode="&#xae;" horiz-adv-x="798" 
d="M62 597q20 55 78 101q53 43 114 62q76 24 148 24q151 0 257 -99q101 -125 101 -280q0 -76 -27 -147q-29 -77 -81 -125q-59 -55 -168 -91q-54 -18 -107 -18q-155 0 -285 159q-72 88 -72 240q0 102 42 174zM656 443q-10 115 -66 197q-69 101 -188 101q-100 0 -157 -61
q-99 -107 -99 -277q0 -84 29 -146q79 -170 206 -178q90 -6 178 79q53 51 76 131q17 58 21 154zM518 576q20 -23 20 -67q0 -25 -8 -38q-37 -61 -86 -64q2 -2 5 -3q64 -34 74 -117q2 -11 7 -41q7 -18 36 -38q-45 12 -61 21q-32 18 -44 53q-19 56 -30 72q-34 48 -96 45v-6
q0 -101 2 -119q4 -37 28 -52q5 -3 19 -11q-66 8 -83 8q-22 0 -65 -8q29 11 33 20t5 66q-1 6 -1 125q0 116 1 136q2 38 0 47q-4 21 -19 34q38 -23 65 -23q10 2 40 9q37 9 57 6q61 -9 101 -55zM447 592q-21 28 -58 28q-35 0 -46 -38q-7 -24 -7 -147v-14q26 -3 45 -3q20 0 32 3
q24 0 53 41q10 19 10 46q0 44 -29 84z" />
    <glyph glyph-name="macron" unicode="&#xaf;" 
 />
    <glyph glyph-name="macron" unicode="&#x2c9;" 
 />
    <glyph glyph-name="degree" unicode="&#xb0;" 
 />
    <glyph glyph-name="plusminus" unicode="&#xb1;" 
 />
    <glyph glyph-name="twosuperior" unicode="&#xb2;" 
 />
    <glyph glyph-name="threesuperior" unicode="&#xb3;" 
 />
    <glyph glyph-name="acute" unicode="&#xb4;" 
 />
    <glyph glyph-name="mu" unicode="&#xb5;" 
 />
    <glyph glyph-name="mu" unicode="&#x3bc;" 
 />
    <glyph glyph-name="paragraph" unicode="&#xb6;" 
 />
    <glyph glyph-name="periodcentered" unicode="&#xb7;" 
 />
    <glyph glyph-name="periodcentered" unicode="&#x2219;" 
 />
    <glyph glyph-name="cedilla" unicode="&#xb8;" 
 />
    <glyph glyph-name="onesuperior" unicode="&#xb9;" 
 />
    <glyph glyph-name="ordmasculine" unicode="&#xba;" 
 />
    <glyph glyph-name="guillemotright" unicode="&#xbb;" 
 />
    <glyph glyph-name="onequarter" unicode="&#xbc;" 
 />
    <glyph glyph-name="onehalf" unicode="&#xbd;" 
 />
    <glyph glyph-name="threequarters" unicode="&#xbe;" 
 />
    <glyph glyph-name="questiondown" unicode="&#xbf;" 
 />
    <glyph glyph-name="Agrave" unicode="&#xc0;" 
 />
    <glyph glyph-name="Aacute" unicode="&#xc1;" 
 />
    <glyph glyph-name="Acircumflex" unicode="&#xc2;" 
 />
    <glyph glyph-name="Atilde" unicode="&#xc3;" 
 />
    <glyph glyph-name="Adieresis" unicode="&#xc4;" 
 />
    <glyph glyph-name="Aring" unicode="&#xc5;" 
 />
    <glyph glyph-name="AE" unicode="&#xc6;" 
 />
    <glyph glyph-name="Ccedilla" unicode="&#xc7;" 
 />
    <glyph glyph-name="Egrave" unicode="&#xc8;" 
 />
    <glyph glyph-name="Eacute" unicode="&#xc9;" 
 />
    <glyph glyph-name="Ecircumflex" unicode="&#xca;" 
 />
    <glyph glyph-name="Edieresis" unicode="&#xcb;" 
 />
    <glyph glyph-name="Igrave" unicode="&#xcc;" 
 />
    <glyph glyph-name="Iacute" unicode="&#xcd;" 
 />
    <glyph glyph-name="Icircumflex" unicode="&#xce;" 
 />
    <glyph glyph-name="Idieresis" unicode="&#xcf;" 
 />
    <glyph glyph-name="Eth" unicode="&#xd0;" 
 />
    <glyph glyph-name="Ntilde" unicode="&#xd1;" 
 />
    <glyph glyph-name="Ograve" unicode="&#xd2;" 
 />
    <glyph glyph-name="Oacute" unicode="&#xd3;" 
 />
    <glyph glyph-name="Ocircumflex" unicode="&#xd4;" 
 />
    <glyph glyph-name="Otilde" unicode="&#xd5;" 
 />
    <glyph glyph-name="Odieresis" unicode="&#xd6;" 
 />
    <glyph glyph-name="Oslash" unicode="&#xd8;" 
 />
    <glyph glyph-name="Ugrave" unicode="&#xd9;" 
 />
    <glyph glyph-name="Uacute" unicode="&#xda;" 
 />
    <glyph glyph-name="Ucircumflex" unicode="&#xdb;" 
 />
    <glyph glyph-name="Udieresis" unicode="&#xdc;" 
 />
    <glyph glyph-name="Yacute" unicode="&#xdd;" 
 />
    <glyph glyph-name="Thorn" unicode="&#xde;" 
 />
    <glyph glyph-name="germandbls" unicode="&#xdf;" 
 />
    <glyph glyph-name="agrave" unicode="&#xe0;" 
 />
    <glyph glyph-name="aacute" unicode="&#xe1;" 
 />
    <glyph glyph-name="acircumflex" unicode="&#xe2;" 
 />
    <glyph glyph-name="atilde" unicode="&#xe3;" 
 />
    <glyph glyph-name="adieresis" unicode="&#xe4;" 
 />
    <glyph glyph-name="aring" unicode="&#xe5;" 
 />
    <glyph glyph-name="ae" unicode="&#xe6;" 
 />
    <glyph glyph-name="ccedilla" unicode="&#xe7;" 
 />
    <glyph glyph-name="egrave" unicode="&#xe8;" 
 />
    <glyph glyph-name="eacute" unicode="&#xe9;" 
 />
    <glyph glyph-name="ecircumflex" unicode="&#xea;" 
 />
    <glyph glyph-name="edieresis" unicode="&#xeb;" 
 />
    <glyph glyph-name="igrave" unicode="&#xec;" 
 />
    <glyph glyph-name="iacute" unicode="&#xed;" 
 />
    <glyph glyph-name="icircumflex" unicode="&#xee;" 
 />
    <glyph glyph-name="idieresis" unicode="&#xef;" 
 />
    <glyph glyph-name="eth" unicode="&#xf0;" 
 />
    <glyph glyph-name="ntilde" unicode="&#xf1;" 
 />
    <glyph glyph-name="ograve" unicode="&#xf2;" 
 />
    <glyph glyph-name="oacute" unicode="&#xf3;" 
 />
    <glyph glyph-name="ocircumflex" unicode="&#xf4;" 
 />
    <glyph glyph-name="otilde" unicode="&#xf5;" 
 />
    <glyph glyph-name="odieresis" unicode="&#xf6;" 
 />
    <glyph glyph-name="divide" unicode="&#xf7;" 
 />
    <glyph glyph-name="oslash" unicode="&#xf8;" 
 />
    <glyph glyph-name="ugrave" unicode="&#xf9;" 
 />
    <glyph glyph-name="uacute" unicode="&#xfa;" 
 />
    <glyph glyph-name="ucircumflex" unicode="&#xfb;" 
 />
    <glyph glyph-name="udieresis" unicode="&#xfc;" 
 />
    <glyph glyph-name="thorn" unicode="&#xfe;" 
 />
    <glyph glyph-name="ydieresis" unicode="&#xff;" 
 />
    <glyph glyph-name="dotlessi" unicode="&#x131;" 
 />
    <glyph glyph-name="Lslash" unicode="&#x141;" 
 />
    <glyph glyph-name="lslash" unicode="&#x142;" 
 />
    <glyph glyph-name="OE" unicode="&#x152;" 
 />
    <glyph glyph-name="oe" unicode="&#x153;" 
 />
    <glyph glyph-name="Scaron" unicode="&#x160;" 
 />
    <glyph glyph-name="scaron" unicode="&#x161;" 
 />
    <glyph glyph-name="Ydieresis" unicode="&#x178;" 
 />
    <glyph glyph-name="Zcaron" unicode="&#x17d;" 
 />
    <glyph glyph-name="zcaron" unicode="&#x17e;" 
 />
    <glyph glyph-name="florin" unicode="&#x192;" 
 />
    <glyph glyph-name="circumflex" unicode="&#x2c6;" 
 />
    <glyph glyph-name="caron" unicode="&#x2c7;" 
 />
    <glyph glyph-name="breve" unicode="&#x2d8;" 
 />
    <glyph glyph-name="dotaccent" unicode="&#x2d9;" 
 />
    <glyph glyph-name="ring" unicode="&#x2da;" 
 />
    <glyph glyph-name="ogonek" unicode="&#x2db;" 
 />
    <glyph glyph-name="tilde" unicode="&#x2dc;" 
 />
    <glyph glyph-name="hungarumlaut" unicode="&#x2dd;" 
 />
    <glyph glyph-name="Delta" unicode="&#x394;" 
 />
    <glyph glyph-name="Delta" unicode="&#x2206;" 
 />
    <glyph glyph-name="Omega" unicode="&#x3a9;" 
 />
    <glyph glyph-name="Omega" unicode="&#x2126;" 
 />
    <glyph glyph-name="pi" unicode="&#x3c0;" 
 />
    <glyph glyph-name="endash" unicode="&#x2013;" 
 />
    <glyph glyph-name="emdash" unicode="&#x2014;" 
 />
    <glyph glyph-name="quoteleft" unicode="&#x2018;" horiz-adv-x="185" 
d="M45 698q29 -8 49 -41q7 -12 36 -74q-10 73 -10 110q0 34 18 79q-50 2 -78 51q2 -18 2 -27q0 -36 -17 -98z" />
    <glyph glyph-name="quoteright" unicode="&#x2019;" horiz-adv-x="217" 
d="M153 698q-29 -8 -49 -41q-7 -12 -36 -74q10 73 10 110q0 34 -18 79q50 2 78 51q-2 -18 -2 -27q0 -36 17 -98z" />
    <glyph glyph-name="quotesinglbase" unicode="&#x201a;" horiz-adv-x="188" 
d="M139 -2q-29 -8 -49 -41q-7 -12 -36 -74q10 73 10 110q0 34 -18 79q50 2 78 51q-2 -18 -2 -27q0 -36 17 -98z" />
    <glyph glyph-name="quotedblleft" unicode="&#x201c;" horiz-adv-x="318" 
d="M171 702q31 -9 53 -45q7 -12 36 -74q-10 73 -10 110q0 42 21 76q-51 3 -81 54q2 -18 2 -27q0 -65 -21 -94zM45 698q29 -8 49 -41q7 -12 36 -74q-10 73 -10 110q0 34 18 79q-50 2 -78 51q2 -18 2 -27q0 -36 -17 -98z" />
    <glyph glyph-name="quotedblright" unicode="&#x201d;" horiz-adv-x="318" 
d="M141 702q-31 -9 -53 -45q-7 -12 -36 -74q10 73 10 110q0 42 -21 76q51 3 81 54q-2 -18 -2 -27q0 -65 21 -94zM267 698q-29 -8 -49 -41q-7 -12 -36 -74q10 73 10 110q0 34 -18 79q50 2 78 51q-2 -18 -2 -27q0 -36 17 -98z" />
    <glyph glyph-name="quotedblbase" unicode="&#x201e;" horiz-adv-x="302" 
d="M139 -2q-29 -8 -49 -41q-7 -12 -36 -74q10 73 10 110q0 34 -18 79q50 2 78 51q-2 -18 -2 -27q0 -36 17 -98zM259 -2q-29 -8 -49 -41q-7 -12 -36 -74q10 73 10 110q0 34 -18 79q50 2 78 51q-2 -18 -2 -27q0 -36 17 -98z" />
    <glyph glyph-name="dagger" unicode="&#x2020;" 
 />
    <glyph glyph-name="daggerdbl" unicode="&#x2021;" 
 />
    <glyph glyph-name="bullet" unicode="&#x2022;" 
 />
    <glyph glyph-name="ellipsis" unicode="&#x2026;" 
 />
    <glyph glyph-name="perthousand" unicode="&#x2030;" 
 />
    <glyph glyph-name="guilsinglleft" unicode="&#x2039;" 
 />
    <glyph glyph-name="guilsinglright" unicode="&#x203a;" 
 />
    <glyph glyph-name="fraction" unicode="&#x2044;" 
 />
    <glyph glyph-name="trademark" unicode="&#x2122;" horiz-adv-x="856" 
d="M812 457q0 -63 -30 -130t-77 -107l-13 -11q8 14 16 31q45 98 45 204q0 112 -45 149q-19 13 -42 13q-24 0 -42 -21t-21 -45v-231q0 -55 2 -61q4 -22 30 -40q-34 15 -66 15q-30 0 -49 -9l-15 -7q26 20 34 49q2 9 5 54q1 18 1 111q0 109 -1 113q-4 27 -19 47q-17 24 -42 24
q-24 0 -44 -21q-41 -59 -41 -145q0 -113 58 -230q-48 36 -80 102q-29 61 -35 126q-10 115 82 178q25 13 53 13q36 0 64 -19q26 -12 38 -12q9 0 51 19q34 15 74 8q35 -11 64 -44q45 -52 45 -123zM355 640q-41 -61 -38 -150q-1 4 -4 14q-20 63 -43 87q-9 9 -29 11
q-19 1 -19 -49v-265q0 -36 3 -42q8 -17 50 -37q-37 5 -88 9q6 0 -89 -9q53 21 59 49q3 13 3 49q0 124 -1 251q0 5 -6 39q-8 10 -26 8q-42 -15 -76 -118q2 30 2 40q0 62 -27 114q24 -17 52 -21q18 0 61 -2q38 -2 100 0q26 1 59 3t44 10z" />
    <glyph glyph-name="partialdiff" unicode="&#x2202;" 
 />
    <glyph glyph-name="product" unicode="&#x220f;" 
 />
    <glyph glyph-name="summation" unicode="&#x2211;" 
 />
    <glyph glyph-name="radical" unicode="&#x221a;" 
 />
    <glyph glyph-name="infinity" unicode="&#x221e;" 
 />
    <glyph glyph-name="integral" unicode="&#x222b;" 
 />
    <glyph glyph-name="approxequal" unicode="&#x2248;" 
 />
    <glyph glyph-name="approxequal" unicode="&#x22f2;" 
 />
    <glyph glyph-name="notequal" unicode="&#x2260;" 
 />
    <glyph glyph-name="lessequal" unicode="&#x2264;" 
 />
    <glyph glyph-name="greaterequal" unicode="&#x2265;" 
 />
    <glyph glyph-name="lozenge" unicode="&#x25ca;" 
 />
    <glyph glyph-name="apple" unicode="&#xf000;" horiz-adv-x="732" 
d="M592 896l-13 -51q-5 -27 -11 -47q-15 -50 -34 -62q-70 -42 -100 -42q-10 0 -20 2q-19 4 -49 -7q-33 -13 -36 -34q-10 19 -10 43q0 26 12 56q23 58 63 73q16 6 57.5 11t47.5 7q63 21 93 51zM659 196q-7 -36 -17 -66q-24 -72 -58 -105q-31 -29 -90 -29q-48 0 -86 29
q-22 17 -21 17q-7 0 -15 -17q-15 -29 -71 -29q-31 0 -50.5 11t-35.5 36q-22 34 -43 55q-33 34 -68 122q-12 31 -49 142q-9 28 -9 68q0 74 25 131q16 36 63 66q37 24 54 25q98 8 168 -59q17 16 63 47q31 17 68 17q31 0 61 -12q38 -16 56 -36q4 -5 32 -48q12 -24 13 -49
q1 -33 4 -44q-24 29 -40 29q-11 0 -18 -12l-7 -12q-24 26 -45 26q-25 0 -25 -26q-7 2 -14 2q-30 0 -30 -28q0 -11 5 -26q-24 4 -41 -25q-5 -8 -5 -15q0 -18 28 -25q-27 -29 -27 -37q0 -15 34 -27q0 5 -7.5 -6.5t-7.5 -21.5q0 -24 38 -29q0 -54 25 -54q16 0 40 25
q10 -40 22 -40t27 30q7 -32 21 -32q17 0 33 32zM574 864q-3 -3 -45 -40q-27 -23 -61 -26q-32 -6 -83 -22q-16 -8 -42 -58l-10 -33q12 12 26 44q11 25 32 42q4 3 25.5 9.5t26.5 5.5t32.5 6t43 16.5t55.5 55.5z" />
    <glyph glyph-name="fi" unicode="&#xf001;" 
 />
    <glyph glyph-name="fl" unicode="&#xf002;" 
 />
    <glyph glyph-name="LF" 
 />
    <glyph glyph-name="DLE" 
 />
    <glyph glyph-name="DC1" 
 />
    <glyph glyph-name="DC2" 
 />
    <glyph glyph-name="DC3" 
 />
    <glyph glyph-name="DC4" 
 />
    <glyph glyph-name="RS" 
 />
    <glyph glyph-name="US" 
 />
    <glyph glyph-name="DEL" 
 />
  </font>
</defs>
</svg>
